<svg width="661" height="202" viewBox="0 0 661 202" fill="none" xmlns="http://www.w3.org/2000/svg">
<rect x="1" y="150" width="658" height="51" fill="white"/>
<path d="M660.41 0H0.00976562V151.69H660.41V0Z" fill="#BA2025"/>
<path d="M108.69 175.21L112.87 176.54C112.23 178.88 111.16 180.61 109.67 181.74C108.18 182.87 106.29 183.44 103.99 183.44C101.15 183.44 98.82 182.47 96.99 180.53C95.16 178.59 94.25 175.94 94.25 172.58C94.25 169.02 95.17 166.26 97.01 164.29C98.85 162.32 101.26 161.34 104.26 161.34C106.88 161.34 109 162.11 110.63 163.66C111.6 164.57 112.33 165.89 112.82 167.6L108.55 168.62C108.3 167.51 107.77 166.64 106.97 166C106.17 165.36 105.19 165.04 104.05 165.04C102.47 165.04 101.18 165.61 100.19 166.75C99.2 167.89 98.71 169.73 98.71 172.27C98.71 174.97 99.2 176.9 100.17 178.04C101.14 179.19 102.41 179.76 103.96 179.76C105.11 179.76 106.09 179.4 106.92 178.67C107.74 177.93 108.33 176.78 108.69 175.21Z" fill="#BA2025"/>
<path d="M115.6 175.11C115.6 173.75 115.94 172.43 116.61 171.16C117.28 169.89 118.23 168.91 119.46 168.24C120.69 167.57 122.06 167.23 123.58 167.23C125.92 167.23 127.84 167.99 129.34 169.52C130.84 171.04 131.59 172.96 131.59 175.29C131.59 177.63 130.83 179.58 129.32 181.12C127.81 182.66 125.9 183.43 123.61 183.43C122.19 183.43 120.84 183.11 119.55 182.47C118.26 181.83 117.28 180.89 116.61 179.65C115.94 178.4 115.6 176.89 115.6 175.11ZM119.8 175.33C119.8 176.87 120.16 178.04 120.89 178.86C121.62 179.68 122.52 180.08 123.59 180.08C124.66 180.08 125.56 179.67 126.28 178.86C127 178.04 127.37 176.86 127.37 175.3C127.37 173.78 127.01 172.62 126.28 171.8C125.56 170.98 124.66 170.57 123.59 170.57C122.52 170.57 121.62 170.98 120.89 171.8C120.16 172.62 119.8 173.79 119.8 175.33Z" fill="#BA2025"/>
<path d="M148.87 183.07H144.77V175.17C144.77 173.5 144.68 172.42 144.51 171.92C144.33 171.43 144.05 171.05 143.66 170.78C143.27 170.51 142.79 170.37 142.24 170.37C141.53 170.37 140.89 170.56 140.33 170.95C139.76 171.34 139.38 171.85 139.17 172.5C138.96 173.14 138.86 174.33 138.86 176.06V183.07H134.76V167.59H138.57V169.86C139.92 168.11 141.62 167.24 143.67 167.24C144.57 167.24 145.4 167.4 146.15 167.73C146.9 168.06 147.47 168.47 147.85 168.97C148.23 169.48 148.5 170.05 148.65 170.69C148.8 171.33 148.88 172.25 148.88 173.44V183.07H148.87Z" fill="#BA2025"/>
<path d="M151.59 178.65L155.7 178.02C155.87 178.81 156.23 179.42 156.76 179.84C157.3 180.25 158.04 180.46 159 180.46C160.06 180.46 160.86 180.27 161.39 179.88C161.75 179.61 161.93 179.24 161.93 178.79C161.93 178.48 161.83 178.22 161.64 178.02C161.44 177.82 160.98 177.64 160.27 177.48C156.97 176.75 154.87 176.09 153.98 175.48C152.76 174.64 152.14 173.48 152.14 172C152.14 170.66 152.67 169.53 153.73 168.62C154.79 167.7 156.43 167.25 158.66 167.25C160.78 167.25 162.35 167.6 163.38 168.29C164.41 168.98 165.12 170 165.51 171.35L161.65 172.06C161.49 171.46 161.17 171 160.71 170.67C160.25 170.35 159.59 170.19 158.73 170.19C157.65 170.19 156.88 170.34 156.41 170.64C156.1 170.85 155.95 171.13 155.95 171.47C155.95 171.76 156.08 172.01 156.36 172.21C156.73 172.48 158 172.87 160.19 173.36C162.37 173.86 163.9 174.46 164.76 175.18C165.62 175.91 166.04 176.92 166.04 178.23C166.04 179.65 165.45 180.87 164.26 181.89C163.07 182.91 161.32 183.42 158.99 183.42C156.88 183.42 155.21 182.99 153.98 182.14C152.77 181.28 151.97 180.12 151.59 178.65Z" fill="#BA2025"/>
<path d="M169.64 161.7H173.74V165.49H169.64V161.7ZM169.64 167.59H173.74V183.07H169.64V167.59Z" fill="#BA2025"/>
<path d="M176.49 178.65L180.6 178.02C180.77 178.81 181.13 179.42 181.66 179.84C182.2 180.25 182.94 180.46 183.9 180.46C184.96 180.46 185.76 180.27 186.29 179.88C186.65 179.61 186.83 179.24 186.83 178.79C186.83 178.48 186.73 178.22 186.54 178.02C186.34 177.82 185.88 177.64 185.17 177.48C181.87 176.75 179.77 176.09 178.88 175.48C177.66 174.64 177.04 173.48 177.04 172C177.04 170.66 177.57 169.53 178.63 168.62C179.69 167.7 181.33 167.25 183.56 167.25C185.68 167.25 187.25 167.6 188.28 168.29C189.31 168.98 190.02 170 190.41 171.35L186.55 172.06C186.39 171.46 186.07 171 185.61 170.67C185.15 170.35 184.49 170.19 183.63 170.19C182.55 170.19 181.78 170.34 181.31 170.64C181 170.85 180.85 171.13 180.85 171.47C180.85 171.76 180.98 172.01 181.26 172.21C181.63 172.48 182.9 172.87 185.09 173.36C187.27 173.86 188.79 174.46 189.66 175.18C190.52 175.91 190.94 176.92 190.94 178.23C190.94 179.65 190.35 180.87 189.16 181.89C187.97 182.91 186.22 183.42 183.89 183.42C181.78 183.42 180.11 182.99 178.88 182.14C177.68 181.28 176.87 180.12 176.49 178.65Z" fill="#BA2025"/>
<path d="M201.64 167.59V170.86H198.84V177.1C198.84 178.36 198.87 179.1 198.92 179.31C198.97 179.52 199.1 179.69 199.29 179.83C199.48 179.97 199.71 180.04 199.98 180.04C200.36 180.04 200.91 179.91 201.63 179.65L201.98 182.83C201.03 183.24 199.95 183.44 198.74 183.44C198 183.44 197.34 183.32 196.74 183.07C196.15 182.82 195.71 182.5 195.44 182.11C195.16 181.72 194.97 181.18 194.86 180.51C194.77 180.03 194.73 179.07 194.73 177.62V170.87H192.85V167.6H194.73V164.52L198.84 162.13V167.6H201.64V167.59Z" fill="#BA2025"/>
<path d="M213.45 178.14L217.53 178.82C217 180.32 216.18 181.46 215.05 182.24C213.92 183.02 212.5 183.41 210.8 183.41C208.11 183.41 206.11 182.53 204.82 180.77C203.8 179.36 203.29 177.58 203.29 175.43C203.29 172.86 203.96 170.85 205.3 169.4C206.64 167.95 208.34 167.22 210.39 167.22C212.69 167.22 214.51 167.98 215.84 169.5C217.17 171.02 217.81 173.35 217.75 176.49H207.48C207.51 177.71 207.84 178.65 208.47 179.33C209.1 180 209.89 180.34 210.83 180.34C211.47 180.34 212.01 180.17 212.45 179.82C212.9 179.49 213.23 178.92 213.45 178.14ZM213.69 174C213.66 172.81 213.35 171.91 212.77 171.3C212.19 170.68 211.48 170.38 210.64 170.38C209.75 170.38 209.01 170.71 208.42 171.36C207.84 172.01 207.55 172.9 207.56 174.01H213.69V174Z" fill="#BA2025"/>
<path d="M235.18 183.07H231.08V175.17C231.08 173.5 230.99 172.42 230.82 171.92C230.64 171.43 230.36 171.05 229.97 170.78C229.58 170.51 229.1 170.37 228.55 170.37C227.84 170.37 227.2 170.56 226.64 170.95C226.07 171.34 225.69 171.85 225.48 172.5C225.27 173.14 225.17 174.33 225.17 176.06V183.07H221.07V167.59H224.88V169.86C226.23 168.11 227.93 167.24 229.98 167.24C230.88 167.24 231.71 167.4 232.46 167.73C233.21 168.06 233.78 168.47 234.16 168.97C234.54 169.48 234.81 170.05 234.96 170.69C235.11 171.33 235.19 172.25 235.19 173.44V183.07H235.18Z" fill="#BA2025"/>
<path d="M246.44 167.59V170.86H243.64V177.1C243.64 178.36 243.67 179.1 243.72 179.31C243.77 179.52 243.9 179.69 244.09 179.83C244.28 179.97 244.51 180.04 244.78 180.04C245.16 180.04 245.71 179.91 246.43 179.65L246.78 182.83C245.83 183.24 244.75 183.44 243.54 183.44C242.8 183.44 242.14 183.32 241.54 183.07C240.95 182.82 240.51 182.5 240.24 182.11C239.96 181.72 239.77 181.18 239.66 180.51C239.57 180.03 239.53 179.07 239.53 177.62V170.87H237.65V167.6H239.53V164.52L243.64 162.13V167.6H246.44V167.59Z" fill="#BA2025"/>
<path d="M249.18 178.97H253.28V181.9C253.28 183.09 253.18 184.02 252.97 184.71C252.77 185.39 252.38 186.01 251.81 186.55C251.24 187.1 250.52 187.52 249.64 187.83L248.84 186.14C249.67 185.87 250.25 185.49 250.6 185.02C250.95 184.55 251.14 183.89 251.16 183.07H249.18V178.97Z" fill="#BA2025"/>
<path d="M264.81 176.12L269.01 175.71C269.26 177.12 269.78 178.16 270.55 178.82C271.32 179.48 272.37 179.81 273.68 179.81C275.07 179.81 276.12 179.52 276.82 178.93C277.52 178.34 277.88 177.65 277.88 176.87C277.88 176.37 277.73 175.94 277.43 175.58C277.13 175.22 276.62 174.91 275.88 174.65C275.37 174.48 274.22 174.16 272.42 173.72C270.11 173.15 268.48 172.44 267.55 171.6C266.24 170.42 265.58 168.99 265.58 167.3C265.58 166.21 265.89 165.19 266.51 164.24C267.13 163.29 268.02 162.57 269.18 162.07C270.34 161.58 271.74 161.33 273.39 161.33C276.08 161.33 278.09 161.92 279.45 163.09C280.81 164.27 281.52 165.83 281.59 167.8L277.27 167.99C277.09 166.89 276.69 166.1 276.08 165.62C275.47 165.14 274.56 164.9 273.35 164.9C272.1 164.9 271.11 165.16 270.4 165.67C269.95 166 269.72 166.44 269.72 167C269.72 167.51 269.93 167.94 270.36 168.3C270.9 168.76 272.23 169.23 274.32 169.73C276.42 170.23 277.97 170.74 278.98 171.27C279.99 171.8 280.77 172.53 281.34 173.44C281.91 174.36 282.19 175.5 282.19 176.84C282.19 178.07 281.85 179.21 281.17 180.28C280.49 181.35 279.53 182.14 278.28 182.67C277.04 183.19 275.49 183.45 273.63 183.45C270.93 183.45 268.85 182.83 267.41 181.58C265.95 180.33 265.09 178.51 264.81 176.12Z" fill="#BA2025"/>
<path d="M292.89 167.59V170.86H290.09V177.1C290.09 178.36 290.12 179.1 290.17 179.31C290.22 179.52 290.35 179.69 290.54 179.83C290.73 179.97 290.96 180.04 291.23 180.04C291.61 180.04 292.16 179.91 292.88 179.65L293.23 182.83C292.28 183.24 291.2 183.44 289.99 183.44C289.25 183.44 288.59 183.32 287.99 183.07C287.4 182.82 286.96 182.5 286.69 182.11C286.41 181.72 286.22 181.18 286.11 180.51C286.02 180.03 285.98 179.07 285.98 177.62V170.87H284.1V167.6H285.98V164.52L290.09 162.13V167.6H292.89V167.59Z" fill="#BA2025"/>
<path d="M299.66 183.07H295.56V167.59H299.37V169.79C300.02 168.75 300.6 168.07 301.13 167.74C301.65 167.41 302.24 167.24 302.9 167.24C303.83 167.24 304.73 167.5 305.6 168.01L304.33 171.58C303.64 171.13 303 170.91 302.4 170.91C301.83 170.91 301.34 171.07 300.94 171.38C300.54 171.7 300.23 172.27 300 173.09C299.77 173.92 299.66 175.65 299.66 178.28V183.07Z" fill="#BA2025"/>
<path d="M306.41 175.11C306.41 173.75 306.74 172.43 307.42 171.16C308.09 169.89 309.04 168.91 310.27 168.24C311.5 167.57 312.87 167.23 314.39 167.23C316.73 167.23 318.65 167.99 320.15 169.52C321.65 171.04 322.39 172.96 322.39 175.29C322.39 177.63 321.63 179.58 320.12 181.12C318.61 182.66 316.7 183.43 314.41 183.43C312.99 183.43 311.64 183.11 310.35 182.47C309.06 181.83 308.08 180.89 307.41 179.65C306.74 178.4 306.41 176.89 306.41 175.11ZM310.61 175.33C310.61 176.87 310.97 178.04 311.7 178.86C312.43 179.68 313.33 180.08 314.4 180.08C315.47 180.08 316.37 179.67 317.09 178.86C317.81 178.04 318.18 176.86 318.18 175.3C318.18 173.78 317.82 172.62 317.09 171.8C316.37 170.98 315.47 170.57 314.4 170.57C313.33 170.57 312.43 170.98 311.7 171.8C310.97 172.62 310.61 173.79 310.61 175.33Z" fill="#BA2025"/>
<path d="M339.68 183.07H335.58V175.17C335.58 173.5 335.49 172.42 335.32 171.92C335.14 171.43 334.86 171.05 334.47 170.78C334.08 170.51 333.6 170.37 333.05 170.37C332.34 170.37 331.7 170.56 331.14 170.95C330.57 171.34 330.19 171.85 329.98 172.5C329.77 173.14 329.67 174.33 329.67 176.06V183.07H325.57V167.59H329.38V169.86C330.73 168.11 332.43 167.24 334.48 167.24C335.38 167.24 336.21 167.4 336.96 167.73C337.71 168.06 338.28 168.47 338.66 168.97C339.04 169.48 339.31 170.05 339.46 170.69C339.61 171.33 339.69 172.25 339.69 173.44V183.07H339.68Z" fill="#BA2025"/>
<path d="M343.46 184.09L348.14 184.66C348.22 185.2 348.4 185.58 348.68 185.78C349.07 186.07 349.68 186.22 350.52 186.22C351.59 186.22 352.39 186.06 352.93 185.74C353.29 185.53 353.56 185.18 353.75 184.7C353.88 184.36 353.94 183.73 353.94 182.82V180.56C352.71 182.23 351.17 183.07 349.3 183.07C347.22 183.07 345.57 182.19 344.36 180.43C343.41 179.04 342.93 177.31 342.93 175.24C342.93 172.64 343.55 170.66 344.8 169.29C346.05 167.92 347.6 167.23 349.46 167.23C351.37 167.23 352.95 168.07 354.2 169.75V167.58H358.03V181.47C358.03 183.3 357.88 184.66 357.58 185.57C357.28 186.47 356.86 187.18 356.31 187.7C355.77 188.22 355.04 188.62 354.13 188.91C353.22 189.2 352.07 189.35 350.68 189.35C348.05 189.35 346.19 188.9 345.09 188C343.99 187.1 343.44 185.96 343.44 184.58C343.44 184.45 343.45 184.29 343.46 184.09ZM347.12 175.01C347.12 176.65 347.44 177.86 348.07 178.62C348.71 179.38 349.49 179.76 350.43 179.76C351.43 179.76 352.28 179.37 352.97 178.59C353.66 177.81 354 176.65 354 175.12C354 173.51 353.67 172.32 353.01 171.55C352.35 170.77 351.51 170.38 350.5 170.38C349.52 170.38 348.71 170.76 348.07 171.52C347.44 172.28 347.12 173.44 347.12 175.01Z" fill="#BA2025"/>
<path d="M389.32 180.46L386.84 183.63C385.62 183.04 384.46 182.22 383.34 181.18C382.48 181.96 381.56 182.53 380.58 182.9C379.61 183.27 378.45 183.45 377.11 183.45C374.45 183.45 372.44 182.7 371.1 181.2C370.06 180.05 369.54 178.71 369.54 177.21C369.54 175.84 369.95 174.61 370.76 173.51C371.58 172.41 372.8 171.47 374.42 170.66C373.69 169.8 373.14 168.97 372.77 168.19C372.4 167.41 372.22 166.67 372.22 165.97C372.22 164.68 372.74 163.58 373.77 162.68C374.81 161.78 376.28 161.33 378.2 161.33C380.05 161.33 381.49 161.8 382.53 162.74C383.57 163.68 384.09 164.84 384.09 166.2C384.09 167.07 383.83 167.89 383.32 168.66C382.81 169.44 381.77 170.32 380.2 171.3L383.18 175.22C383.53 174.6 383.83 173.79 384.08 172.79L387.79 173.63C387.42 174.94 387.1 175.9 386.83 176.51C386.56 177.12 386.27 177.63 385.96 178.03C386.41 178.46 387.01 178.92 387.73 179.44C388.44 179.96 388.97 180.3 389.32 180.46ZM376.55 173.29C375.61 173.77 374.9 174.34 374.44 175.01C373.97 175.68 373.74 176.37 373.74 177.06C373.74 177.95 374.03 178.67 374.61 179.23C375.19 179.79 375.97 180.07 376.94 180.07C377.58 180.07 378.2 179.95 378.79 179.69C379.39 179.44 380.03 179.02 380.73 178.43L376.55 173.29ZM378.16 168.84L379.27 167.99C380.09 167.36 380.5 166.73 380.5 166.11C380.5 165.59 380.3 165.14 379.91 164.77C379.52 164.4 378.99 164.22 378.32 164.22C377.67 164.22 377.16 164.38 376.79 164.71C376.42 165.04 376.23 165.41 376.23 165.84C376.23 166.35 376.54 166.96 377.16 167.68L378.16 168.84Z" fill="#BA2025"/>
<path d="M400.25 161.7H408.14C409.92 161.7 411.28 161.84 412.21 162.11C413.46 162.48 414.54 163.14 415.43 164.08C416.33 165.02 417.01 166.18 417.47 167.54C417.94 168.9 418.17 170.59 418.17 172.59C418.17 174.35 417.95 175.86 417.51 177.14C416.98 178.7 416.21 179.96 415.22 180.92C414.47 181.65 413.46 182.22 412.19 182.63C411.24 182.93 409.96 183.08 408.37 183.08H400.25V161.7ZM404.57 165.31V179.47H407.79C409 179.47 409.87 179.4 410.4 179.27C411.1 179.09 411.68 178.8 412.14 178.38C412.6 177.96 412.98 177.27 413.27 176.32C413.56 175.36 413.71 174.06 413.71 172.4C413.71 170.75 413.56 169.48 413.27 168.59C412.98 167.7 412.57 167.01 412.04 166.52C411.51 166.02 410.85 165.69 410.04 165.51C409.44 165.38 408.26 165.31 406.5 165.31H404.57Z" fill="#BA2025"/>
<path d="M430.77 178.14L434.85 178.82C434.32 180.32 433.5 181.46 432.37 182.24C431.24 183.02 429.82 183.41 428.12 183.41C425.43 183.41 423.43 182.53 422.14 180.77C421.12 179.36 420.61 177.58 420.61 175.43C420.61 172.86 421.28 170.85 422.62 169.4C423.96 167.95 425.66 167.22 427.71 167.22C430.01 167.22 431.83 167.98 433.16 169.5C434.49 171.02 435.13 173.35 435.07 176.49H424.8C424.83 177.71 425.16 178.65 425.79 179.33C426.42 180 427.21 180.34 428.15 180.34C428.79 180.34 429.33 180.17 429.77 179.82C430.21 179.49 430.54 178.92 430.77 178.14ZM431 174C430.97 172.81 430.66 171.91 430.08 171.3C429.5 170.68 428.79 170.38 427.95 170.38C427.06 170.38 426.32 170.71 425.73 171.36C425.15 172.01 424.86 172.9 424.87 174.01H431V174Z" fill="#BA2025"/>
<path d="M438.29 167.59H442.11V169.87C442.6 169.09 443.27 168.46 444.12 167.97C444.96 167.48 445.9 167.24 446.93 167.24C448.73 167.24 450.25 167.94 451.51 169.36C452.76 170.77 453.39 172.73 453.39 175.25C453.39 177.83 452.76 179.85 451.49 181.28C450.22 182.71 448.69 183.43 446.9 183.43C446.04 183.43 445.27 183.26 444.57 182.92C443.87 182.58 443.14 182 442.38 181.17V188.97H438.28V167.59H438.29ZM442.34 175.07C442.34 176.81 442.68 178.1 443.37 178.93C444.06 179.76 444.9 180.17 445.89 180.17C446.84 180.17 447.63 179.79 448.27 179.03C448.9 178.27 449.22 177.02 449.22 175.27C449.22 173.65 448.89 172.44 448.24 171.66C447.59 170.87 446.78 170.48 445.82 170.48C444.82 170.48 443.99 170.86 443.33 171.64C442.67 172.41 442.34 173.55 442.34 175.07Z" fill="#BA2025"/>
<path d="M465.62 178.14L469.7 178.82C469.17 180.32 468.35 181.46 467.22 182.24C466.09 183.02 464.67 183.41 462.97 183.41C460.28 183.41 458.28 182.53 456.99 180.77C455.97 179.36 455.46 177.58 455.46 175.43C455.46 172.86 456.13 170.85 457.47 169.4C458.81 167.95 460.51 167.22 462.56 167.22C464.86 167.22 466.68 167.98 468.01 169.5C469.34 171.02 469.98 173.35 469.92 176.49H459.65C459.68 177.71 460.01 178.65 460.64 179.33C461.27 180 462.06 180.34 463 180.34C463.64 180.34 464.18 180.17 464.62 179.82C465.06 179.49 465.39 178.92 465.62 178.14ZM465.85 174C465.82 172.81 465.51 171.91 464.93 171.3C464.35 170.68 463.64 170.38 462.8 170.38C461.91 170.38 461.17 170.71 460.58 171.36C460 172.01 459.71 172.9 459.72 174.01H465.85V174Z" fill="#BA2025"/>
<path d="M487.34 183.07H483.24V175.17C483.24 173.5 483.15 172.42 482.98 171.92C482.8 171.43 482.52 171.05 482.13 170.78C481.74 170.51 481.26 170.37 480.71 170.37C480 170.37 479.36 170.56 478.8 170.95C478.23 171.34 477.85 171.85 477.64 172.5C477.43 173.14 477.33 174.33 477.33 176.06V183.07H473.23V167.59H477.04V169.86C478.39 168.11 480.09 167.24 482.14 167.24C483.04 167.24 483.87 167.4 484.62 167.73C485.37 168.06 485.94 168.47 486.32 168.97C486.7 169.48 486.97 170.05 487.12 170.69C487.27 171.33 487.35 172.25 487.35 173.44V183.07H487.34Z" fill="#BA2025"/>
<path d="M505.7 183.07H501.9V180.8C501.27 181.68 500.52 182.34 499.66 182.78C498.8 183.21 497.93 183.43 497.06 183.43C495.28 183.43 493.76 182.71 492.49 181.28C491.22 179.85 490.59 177.85 490.59 175.28C490.59 172.66 491.21 170.66 492.44 169.3C493.67 167.93 495.23 167.25 497.12 167.25C498.85 167.25 500.35 167.97 501.61 169.41V161.71H505.71V183.07H505.7ZM494.76 174.99C494.76 176.64 494.99 177.84 495.44 178.58C496.1 179.65 497.02 180.19 498.21 180.19C499.15 180.19 499.95 179.79 500.61 178.98C501.27 178.18 501.6 176.98 501.6 175.39C501.6 173.61 501.28 172.33 500.64 171.55C500 170.77 499.18 170.38 498.17 170.38C497.2 170.38 496.38 170.77 495.73 171.54C495.09 172.3 494.76 173.46 494.76 174.99Z" fill="#BA2025"/>
<path d="M512.8 172.31L509.08 171.64C509.5 170.14 510.22 169.03 511.24 168.32C512.26 167.6 513.78 167.24 515.79 167.24C517.62 167.24 518.98 167.45 519.88 167.89C520.78 168.32 521.4 168.87 521.77 169.54C522.13 170.21 522.32 171.43 522.32 173.21L522.27 177.99C522.27 179.35 522.34 180.36 522.47 181C522.6 181.65 522.85 182.34 523.21 183.08H519.16C519.05 182.81 518.92 182.41 518.77 181.87C518.7 181.63 518.65 181.47 518.62 181.39C517.92 182.07 517.17 182.58 516.38 182.92C515.58 183.26 514.73 183.43 513.83 183.43C512.23 183.43 510.98 183 510.06 182.13C509.14 181.27 508.68 180.17 508.68 178.85C508.68 177.98 508.89 177.2 509.31 176.51C509.73 175.83 510.31 175.3 511.07 174.93C511.82 174.57 512.91 174.25 514.33 173.98C516.24 173.62 517.57 173.29 518.31 172.97V172.56C518.31 171.77 518.11 171.21 517.73 170.88C517.34 170.55 516.61 170.38 515.53 170.38C514.8 170.38 514.23 170.52 513.82 170.81C513.38 171.09 513.05 171.59 512.8 172.31ZM518.28 175.64C517.76 175.81 516.92 176.02 515.78 176.27C514.65 176.51 513.9 176.75 513.55 176.98C513.02 177.36 512.75 177.84 512.75 178.42C512.75 178.99 512.96 179.49 513.39 179.91C513.82 180.33 514.36 180.54 515.02 180.54C515.76 180.54 516.47 180.3 517.14 179.81C517.64 179.44 517.96 178.99 518.12 178.45C518.23 178.1 518.28 177.43 518.28 176.45V175.64Z" fill="#BA2025"/>
<path d="M526.17 183.07V161.69H530.27V169.39C531.53 167.95 533.03 167.23 534.76 167.23C536.65 167.23 538.21 167.91 539.44 169.28C540.67 170.64 541.29 172.6 541.29 175.16C541.29 177.8 540.66 179.84 539.4 181.27C538.14 182.7 536.61 183.41 534.81 183.41C533.92 183.41 533.05 183.19 532.19 182.75C531.33 182.31 530.59 181.65 529.97 180.79V183.06H526.17V183.07ZM530.24 174.99C530.24 176.6 530.49 177.78 531 178.55C531.71 179.64 532.65 180.18 533.83 180.18C534.73 180.18 535.5 179.79 536.14 179.02C536.78 178.25 537.09 177.03 537.09 175.37C537.09 173.6 536.77 172.32 536.13 171.54C535.49 170.76 534.67 170.37 533.66 170.37C532.68 170.37 531.86 170.75 531.21 171.52C530.56 172.28 530.24 173.44 530.24 174.99Z" fill="#BA2025"/>
<path d="M548.69 161.7H544.59V183.08H548.69V161.7Z" fill="#BA2025"/>
<path d="M561.85 178.14L565.93 178.82C565.4 180.32 564.58 181.46 563.45 182.24C562.32 183.02 560.9 183.41 559.2 183.41C556.51 183.41 554.51 182.53 553.22 180.77C552.2 179.36 551.69 177.58 551.69 175.43C551.69 172.86 552.36 170.85 553.7 169.4C555.04 167.95 556.74 167.22 558.79 167.22C561.09 167.22 562.91 167.98 564.24 169.5C565.57 171.02 566.21 173.35 566.15 176.49H555.88C555.91 177.71 556.24 178.65 556.87 179.33C557.5 180 558.29 180.34 559.23 180.34C559.87 180.34 560.41 180.17 560.85 179.82C561.29 179.49 561.63 178.92 561.85 178.14ZM562.08 174C562.05 172.81 561.74 171.91 561.16 171.3C560.58 170.68 559.87 170.38 559.03 170.38C558.14 170.38 557.4 170.71 556.81 171.36C556.23 172.01 555.94 172.9 555.95 174.01H562.08V174Z" fill="#BA2025"/>
<path d="M658.75 200.31H1.66V1.66H658.76V200.31H658.75ZM660.41 0H0V201.96H660.4V0H660.41Z" fill="#BA2025"/>
<path d="M158.18 57L152.51 56.96L152.47 62.8C152.47 63.02 152.47 63.19 152.46 63.29C152.46 63.57 152.46 63.83 152.46 64.07C152.27 64.29 152.16 64.45 152.1 64.56C152 64.71 151.79 64.9 151.46 65.12C151.32 65.22 151.03 65.39 150.61 65.63L146.91 67.77L142.61 65.46L144.95 63.91C145.33 63.71 145.65 63.55 145.91 63.41C146.17 63.28 146.35 63.12 146.45 62.95C146.5 62.85 146.52 62.72 146.52 62.54C146.52 62.26 146.52 62.04 146.52 61.87L146.56 56.93L136.51 56.86L136.45 65.37C136.44 65.99 136.57 66.45 136.83 66.76C137.09 67.07 137.45 67.28 137.91 67.4L150.08 71.26C151.96 71.85 153.31 72.35 154.1 72.79C155.28 73.42 155.87 74.16 155.86 75.01C155.86 75.51 155.76 75.92 155.57 76.22C155.38 76.54 154.97 76.87 154.36 77.21C153.27 77.85 151.88 78.17 150.18 78.16L147.36 75.67L149.7 75.27C150.5 75.15 150.91 74.83 150.91 74.31C150.91 74.01 150.76 73.74 150.45 73.5C150.15 73.27 149.69 73.06 149.08 72.88L135.58 68.56C135.02 68.4 134.34 68.16 133.54 67.83C133.02 67.62 132.47 67.4 131.88 67.15C131.29 66.89 130.93 66.65 130.78 66.41C130.64 66.17 130.57 65.82 130.58 65.34L130.64 56.85L127.95 56.83L127.97 54.03L158.2 54.24L158.18 57Z" fill="white"/>
<path fill-rule="evenodd" clip-rule="evenodd" d="M196.16 57.26L189.64 57.21L189.53 73.13L184.03 70.13L184.06 65.82L175 65.76L174.35 67.4C174.21 67.75 173.97 68.16 173.64 68.63C173.59 68.7 173.49 68.85 173.31 69.07C173.14 69.3 172.97 69.49 172.77 69.65C172.58 69.81 172.3 69.9 171.92 69.93C171.5 69.95 171.1 69.86 170.72 69.66C170.58 69.56 170.3 69.34 169.88 69.01L164.18 64.26C163.99 64.11 163.88 64 163.83 63.92C163.55 63.65 163.41 63.42 163.41 63.24C163.41 63.16 163.48 63.05 163.63 62.89C163.77 62.73 164.04 62.63 164.45 62.6C164.85 62.57 165.43 62.55 166.18 62.56L170.57 62.59L170.58 61.24C169.07 61.23 167.81 61.14 166.79 60.97C165.78 60.8 164.74 60.49 163.68 60.05C162.62 59.6 161.8 59.1 161.21 58.56C160.63 58.01 160.33 57.42 160.34 56.79C160.34 56.59 160.37 56.44 160.41 56.34C160.7 55.59 161.22 55.05 161.98 54.72C162.74 54.4 163.71 54.24 164.89 54.25C165.55 54.26 166.21 54.3 166.87 54.38C168.99 54.65 170.92 55.35 172.66 56.5C173.41 57.01 174.08 57.61 174.66 58.3C175.24 59 175.54 59.54 175.53 59.91L175.51 62.63L184.08 62.69L184.12 57.19L177.89 57.14L173.8 54.31L196.18 54.47L196.16 57.26ZM170.94 59.75C171.32 59.63 171.51 59.35 171.51 58.9C171.52 58.3 171.23 57.73 170.64 57.2C170.05 56.65 169.17 56.37 167.99 56.37C167.24 56.37 166.56 56.5 165.97 56.76C165.38 57.02 165.08 57.38 165.08 57.86C165.07 58.32 165.38 58.73 165.99 59.06C166.46 59.31 167.05 59.51 167.76 59.67C168.46 59.83 169.17 59.9 169.88 59.91C170.35 59.89 170.7 59.85 170.94 59.75Z" fill="white"/>
<path d="M226 57.47L214.74 57.39C215.63 58.5 216.07 59.57 216.06 60.62C216.06 61.04 215.98 61.52 215.84 62.06C215.7 62.6 215.45 63.08 215.12 63.49C214.79 63.92 214.26 64.45 213.55 65.1C212.5 66.04 211.26 66.83 209.84 67.47L221.76 73.06L219.57 74.75L207.36 68.27C204.96 67.01 203.46 66.17 202.85 65.77C201.44 64.81 200.74 63.91 200.74 63.06C200.74 62.13 201.17 61.52 202.03 61.2C202.64 60.98 203.66 60.88 205.07 60.88C205.64 60.89 206.44 60.98 207.47 61.16C208.51 61.35 209.19 61.43 209.53 61.44C210.24 61.45 210.72 61.27 210.99 60.91C211.25 60.55 211.38 60.12 211.39 59.62C211.39 59.42 211.39 59.27 211.39 59.17C211.4 58.47 211.04 57.87 210.34 57.36L195.54 57.26L195.56 54.46L226.01 54.67L226 57.47Z" fill="white"/>
<path fill-rule="evenodd" clip-rule="evenodd" d="M218.76 54.51L216.07 54.49C215.42 53.89 214.62 53.38 213.68 52.98C213.07 52.7 212.44 52.46 211.81 52.24C211.17 52.02 210.5 51.86 209.79 51.78C209.08 51.69 208.66 51.63 208.52 51.6C208.24 51.57 207.84 51.56 207.31 51.56C206.75 51.56 206.11 51.58 205.4 51.66L201.24 48.56C202.18 48.49 203.03 48.46 203.79 48.47C206.15 48.49 208.55 48.89 211 49.68C211.85 49.96 212.68 50.31 213.47 50.75C213.94 51.03 214.65 51.47 215.59 52.07C216.3 52.53 216.88 52.93 217.35 53.29C217.82 53.64 218.29 54.05 218.76 54.51Z" fill="white"/>
<path fill-rule="evenodd" clip-rule="evenodd" d="M244.58 68.01C242.5 68.75 240.64 69.11 238.98 69.1C238.23 69.09 237.51 69.04 236.82 68.94C236.13 68.83 235.18 68.66 233.95 68.4C232.39 68.07 231.06 67.46 229.93 66.58C228.81 65.7 228.25 64.96 228.25 64.36L228.3 57.51L225.96 57.49L225.98 54.69L244.67 54.82L244.65 57.63L235.51 57.56L244.61 62.45L244.58 68.01ZM242.53 64.07L234.07 59.53L233.73 60.01L233.69 65.46C233.69 65.93 234 66.33 234.64 66.65C235.27 66.97 236.06 67.13 237 67.13C237.8 67.13 238.62 67 239.45 66.73C240.28 66.47 241.02 66.16 241.69 65.82C242.54 65.35 242.97 64.96 242.97 64.64C242.98 64.41 242.83 64.23 242.53 64.07Z" fill="white"/>
<path d="M272.11 57.8L262.13 57.73L262.08 65.22L252.24 65.15C251.2 65.14 249.95 65.39 248.48 65.91C246.68 66.55 245.78 67.25 245.77 68.02C245.77 68.8 246.25 69.4 247.21 69.84C248.18 70.29 249.56 70.51 251.35 70.52C253.52 70.54 256 70.31 258.79 69.83C261.58 69.35 263.14 68.99 263.47 68.74L267.2 71.95C266.63 72.17 265.16 72.47 262.8 72.86C259.78 73.36 257.24 73.61 255.22 73.59C251.58 73.57 248.45 72.94 245.81 71.69C243.18 70.44 241.86 68.92 241.88 67.09C241.89 65.39 242.69 64.02 244.28 62.97C245.88 61.92 247.99 61.41 250.63 61.42L255.8 61.46L255.83 57.67L240.82 57.57L240.84 54.76L272.13 54.98L272.11 57.8Z" fill="white"/>
<path fill-rule="evenodd" clip-rule="evenodd" d="M323.42 58.15L318.32 58.11L318.21 74.02L312.92 71.18L312.94 68.52C311.95 69.28 310.68 69.84 309.14 70.19C307.6 70.54 305.94 70.71 304.15 70.7C302.16 70.69 300.14 70.05 298.07 68.79C296 67.53 294.97 66.22 294.98 64.88C294.99 63.6 296.2 62.5 298.61 61.57C300.79 60.73 302.99 60.33 305.2 60.34C306.67 60.35 308.25 60.65 309.94 61.23C311.4 61.72 312.41 62.2 312.98 62.68L313.01 58.07L294.67 57.94L294.69 55.14L323.43 55.34L323.42 58.15ZM312.96 64.74C312.53 64.4 312.05 64.14 311.53 63.92C311 63.7 310.45 63.55 309.85 63.44C309.25 63.34 308.69 63.28 308.16 63.28C307.2 63.27 306.29 63.34 305.43 63.47C304.56 63.6 303.96 63.74 303.63 63.89L308.43 66.8C308.82 66.73 309.29 66.6 309.85 66.42C310.41 66.24 310.97 66 311.54 65.72C312.09 65.44 312.57 65.11 312.96 64.74ZM306.29 67.39L301.48 64.52C301.11 64.51 300.52 64.69 299.71 65.05C298.91 65.4 298.51 65.77 298.51 66.14C298.51 66.64 298.88 67.07 299.63 67.42C300.38 67.78 301.28 67.99 302.32 68.07C303.12 68.12 304.16 67.99 305.44 67.68C305.63 67.63 305.92 67.54 306.29 67.39Z" fill="white"/>
<path d="M313.41 51.06C313.69 51.81 313.82 52.48 313.82 53.08C313.82 53.5 313.79 53.83 313.74 54.09C313.69 54.34 313.54 54.72 313.31 55.24L311.47 55.22C310.43 54.88 309.36 54.58 308.25 54.32C307.14 54.07 305.92 53.84 304.57 53.65C303.23 53.45 301.85 53.35 300.43 53.34C299.72 53.33 299.01 53.33 298.31 53.32C297.65 53.39 297.16 53.44 296.82 53.47L295.57 49.38C297.56 49.39 299.35 49.54 300.95 49.8C301.85 49.95 302.64 50.12 303.36 50.29C303.64 50.37 304.84 50.79 306.96 51.56C308.75 52.22 310.37 52.95 311.84 53.76C311.28 52.19 309.85 50.85 307.54 49.77C307.02 49.54 306.5 49.32 305.96 49.12C305.42 48.92 304.86 48.76 304.3 48.62L303.96 45.77C305.24 45.85 306.37 46.03 307.36 46.3C308.35 46.57 309.36 46.98 310.39 47.53C311.24 47.99 311.87 48.5 312.29 49.07C312.7 49.65 313.08 50.31 313.41 51.06Z" fill="white"/>
<path d="M320.77 51.55L317.35 53.43L313.97 51.61L317.38 49.84L320.77 51.55Z" fill="white"/>
<path fill-rule="evenodd" clip-rule="evenodd" d="M362.56 58.42L345.71 58.3L345.69 61.71C347.06 61.22 348.46 60.98 349.87 60.99C350.2 60.99 350.6 61.02 351.08 61.07C351.55 61.13 352.08 61.2 352.67 61.31C353.27 61.42 353.86 61.6 354.47 61.87C355.08 62.14 355.81 62.62 356.66 63.33C358.11 64.54 358.83 65.84 358.82 67.23C358.82 68.16 358.65 68.96 358.31 69.64C357.97 70.32 357.35 71.04 356.45 71.78L351.51 69.27L353.58 67.34C354.34 66.65 354.72 65.95 354.73 65.25C354.74 64.63 354.28 64.19 353.39 63.93C353.02 63.83 352.6 63.77 352.12 63.77C351.7 63.77 351.32 63.8 350.99 63.84C350.09 64.05 349.43 64.2 349.01 64.27C347.63 64.58 346.52 65.04 345.67 65.63L345.61 74.45L339.05 70.93L339.07 67.57C338.31 67.94 337.34 68.22 336.16 68.39C334.98 68.57 333.87 68.66 332.83 68.65C332.17 68.65 331.63 68.6 331.2 68.52C330.02 68.31 328.77 67.73 327.46 66.77C325.96 65.69 325.21 64.67 325.22 63.72C325.23 62.87 325.75 62.15 326.79 61.54C327.83 60.93 329.2 60.51 330.91 60.28C331.37 60.23 331.75 60.22 332.04 60.22C333.32 60.23 334.87 60.47 336.71 60.96C337.33 61.12 338.13 61.37 339.11 61.73L339.14 58.24L323.42 58.13L323.44 55.32L362.59 55.59L362.56 58.42ZM338.45 64.21L338.46 63.57C338.22 63.47 337.76 63.38 337.08 63.3C336.4 63.21 335.75 63.18 335.13 63.17C333.52 63.15 332.3 63.27 331.45 63.52C330.83 63.69 330.3 63.92 329.85 64.2C329.4 64.48 329.18 64.78 329.18 65.08C329.17 65.3 329.3 65.52 329.56 65.73C329.81 65.94 330.32 66.06 331.07 66.06C331.59 66.06 332.07 66.02 332.52 65.94C332.97 65.86 333.68 65.71 334.65 65.49C335.62 65.27 336.2 65.14 336.38 65.09C337.1 64.87 337.79 64.58 338.45 64.21Z" fill="white"/>
<path fill-rule="evenodd" clip-rule="evenodd" d="M416.76 55.32L415.21 55.31C414.93 54.58 414.09 53.76 412.68 52.82C410.99 51.66 409.19 50.92 407.31 50.58C406.55 50.45 405.65 50.32 404.59 50.19C403.53 50.06 402.64 49.99 401.94 49.99C400.85 49.98 399.86 50.07 398.96 50.25C398.07 50.43 397.28 50.73 396.62 51.15C395.34 51.94 394.7 52.85 394.69 53.87C394.69 54.54 395.01 55.2 395.67 55.86L402.54 55.91L402.52 58.71L396.85 58.67L396.74 74.59L390.89 71.43L390.98 58.63L386.31 58.6L386.32 55.8L390.86 55.83C390.16 55.29 389.69 54.73 389.46 54.13C389.22 53.53 389.11 52.85 389.11 52.1C389.12 51.2 389.74 50.41 390.97 49.72C391.92 49.2 393.36 48.69 395.3 48.18C396.1 47.96 397.17 47.86 398.49 47.86C400.04 47.87 401.72 48.02 403.51 48.31C405.31 48.6 407 49 408.6 49.5C410.82 50.21 412.57 51.04 413.86 51.95C415.14 52.87 416.11 53.99 416.76 55.32Z" fill="white"/>
<path d="M438.74 58.95L433.27 58.91L433.16 74.82L426.68 71.37L426.73 64.78C426.15 64.88 425.61 64.98 425.1 65.1C424.58 65.22 423.96 65.41 423.22 65.65C422.49 65.89 421.6 66.3 420.56 66.87C420.22 67.07 419.77 67.35 419.19 67.72L414.82 65.26L416.74 64.22C415.94 63.82 414.95 63.61 413.77 63.6C413.35 63.59 412.76 63.65 412.03 63.75C411.3 63.86 410.66 64.15 410.11 64.63C409.57 65.11 409.29 65.65 409.29 66.25C409.29 66.95 409.77 67.55 410.76 68.05L416.89 71.31L414.93 72.48L408.91 69.23C407.69 68.58 406.46 67.91 405.25 67.22C404.07 66.47 403.48 65.7 403.49 64.92C403.49 64.82 403.54 64.62 403.63 64.32C403.96 63.45 404.67 62.75 405.73 62.23C406.79 61.7 408.22 61.32 410.02 61.08C410.87 60.96 412.43 61.08 414.69 61.45C416.96 61.81 418.51 62.32 419.35 62.97C419.87 62.73 420.25 62.58 420.5 62.51C421.15 62.26 421.84 62.1 422.55 62.02C423.26 61.92 423.84 61.86 424.29 61.81C424.74 61.77 425.2 61.75 425.67 61.75C426.14 61.75 426.49 61.75 426.73 61.76L426.75 58.84L402.53 58.67L402.55 55.87L438.75 56.12L438.74 58.95Z" fill="white"/>
<path fill-rule="evenodd" clip-rule="evenodd" d="M468.69 55.68L467.12 55.67C466.85 54.94 466 54.11 464.59 53.19C462.91 52.03 461.11 51.28 459.22 50.94C458.47 50.81 457.56 50.68 456.5 50.55C455.44 50.42 454.56 50.35 453.85 50.34C452.77 50.33 451.78 50.42 450.88 50.6C449.98 50.78 449.19 51.08 448.53 51.5C447.25 52.29 446.61 53.2 446.6 54.21C446.59 54.88 446.92 55.55 447.58 56.2L454.44 56.25L454.42 59.05L448.76 59.01L448.65 74.92L442.79 71.78L442.88 58.97L438.21 58.94L438.23 56.13L442.77 56.16C442.06 55.63 441.59 55.06 441.35 54.47C441.12 53.87 441.01 53.2 441.01 52.44C441.02 51.54 441.64 50.75 442.87 50.06C443.81 49.54 445.25 49.03 447.19 48.52C448 48.3 449.07 48.19 450.38 48.2C451.94 48.21 453.62 48.36 455.4 48.65C457.19 48.93 458.89 49.33 460.49 49.84C462.71 50.55 464.46 51.37 465.75 52.29C467.06 53.23 468.03 54.35 468.69 55.68Z" fill="white"/>
<path fill-rule="evenodd" clip-rule="evenodd" d="M487.23 59.29L482.14 59.25L482.03 75.17L476.1 71.98L476.13 67.89L465.59 67.82L465.57 70.59C465.56 70.99 465.32 71.23 464.85 71.3C464.52 71.37 464.17 71.29 463.79 71.05C463.41 70.81 463.17 70.66 463.08 70.61L455.82 66.52C455.06 66.06 454.79 65.6 454.98 65.13C455.12 64.7 455.63 64.49 456.47 64.5L459.94 64.53L459.98 59.1L453.28 59.05L453.3 56.24L486.82 56.48L487.23 59.29ZM465.61 64.56L476.15 64.63L476.19 59.2L465.64 59.13L465.61 64.56Z" fill="white"/>
<path d="M519.21 59.51L509.23 59.44L509.17 66.92L499.34 66.86C498.3 66.85 497.05 67.1 495.59 67.62C493.78 68.26 492.88 68.96 492.87 69.74C492.87 70.51 493.35 71.12 494.32 71.57C495.28 72.01 496.66 72.24 498.45 72.25C500.63 72.27 503.1 72.03 505.89 71.56C508.68 71.08 510.24 70.72 510.57 70.47L514.31 73.68C513.73 73.9 512.27 74.2 509.92 74.59C506.88 75.09 504.37 75.34 502.33 75.32C498.7 75.29 495.56 74.66 492.93 73.42C490.29 72.18 488.97 70.65 488.99 68.83C489 67.13 489.81 65.76 491.4 64.71C492.99 63.66 495.1 63.15 497.74 63.17L502.91 63.2L502.93 59.42L486.18 59.3L486.2 56.5L519.24 56.73L519.21 59.51Z" fill="white"/>
<path fill-rule="evenodd" clip-rule="evenodd" d="M506.74 57.08L504.05 57.06C503.39 56.45 502.6 55.38 501.66 54.97C501.05 54.69 500.42 54.44 499.78 54.23C499.15 54.01 498.47 53.86 497.77 53.77C497.06 53.67 496.64 53.61 496.5 53.59C496.23 53.56 495.82 53.55 495.3 53.54C494.73 53.53 494.1 53.57 493.39 53.64L489.24 50.55C490.18 50.47 491.02 50.45 491.78 50.45C494.14 50.46 496.55 50.87 499.01 51.66C499.85 51.94 500.67 52.3 501.48 52.73C501.95 53.01 502.65 53.45 503.58 54.06C504.29 54.51 504.89 54.92 505.36 55.28C505.8 55.65 506.26 56.63 506.74 57.08Z" fill="white"/>
<path d="M551.67 59.73L545.57 59.69L545.53 65.94L532.93 65.85C532 65.85 531.27 65.9 530.78 66.01C530.29 66.11 530.12 66.37 530.31 66.77C530.73 67.57 531.6 67.98 532.92 67.99L537.23 68.02C539.83 68.04 542.08 68.54 543.99 69.51C545.91 70.48 546.85 71.64 546.83 72.99C546.82 74.23 546.01 75.15 544.37 75.74C542.74 76.32 540.22 76.7 536.83 76.88C536.59 76.9 536.24 76.92 535.76 76.91C532.03 76.88 528.12 75.59 524.03 73.05C520.6 70.9 518.89 69.49 518.9 68.82L521.24 68.05C521.24 68.45 522.57 69.44 525.26 71.03C528.41 72.9 531.23 73.84 533.73 73.86C535.99 73.88 537.91 73.61 539.47 73.06C541.03 72.51 541.82 71.88 541.82 71.18C541.83 70.78 541.41 70.48 540.55 70.26C539.71 70.04 538.88 69.93 538.08 69.92C537.18 69.92 536.17 69.99 535.04 70.15C533.9 70.3 533 70.4 532.34 70.44C531.72 70.49 530.66 70.06 529.16 69.14C527.65 68.24 526.7 67.35 526.28 66.51C525.34 65.87 524.87 65.23 524.88 64.55C524.89 64.43 524.96 64.16 525.13 63.75C525.3 63.34 525.75 63.05 526.52 62.88C527.27 62.71 528.22 62.63 529.35 62.64L540.04 62.71L540.07 59.64L518.05 59.49L518.07 56.69L551.7 56.92L551.67 59.73Z" fill="white"/>
<path d="M53.0801 114.85L53.2201 94.86L77.6101 95.03L77.5901 98.4L59.8701 98.28L59.8401 102.73L76.3101 102.84L76.2901 106.22L59.8101 106.1L59.7801 111.52L78.1401 111.64L78.1201 115.02L53.0801 114.85Z" fill="white"/>
<path d="M92.2901 115.12L80.6401 95.06L87.8501 95.11L96.1201 109.96L104.25 95.22L111.34 95.27L99.4801 115.17L92.2901 115.12Z" fill="white"/>
<path d="M114.65 115.28L114.79 95.29L139.18 95.46L139.15 98.84L121.44 98.72L121.41 103.15L137.88 103.27L137.86 106.65L121.38 106.53L121.35 111.95L139.71 112.07L139.68 115.45L114.65 115.28Z" fill="white"/>
<path fill-rule="evenodd" clip-rule="evenodd" d="M145.44 115.49L145.58 95.51L159.59 95.61C163.11 95.63 165.67 95.83 167.26 96.2C168.86 96.57 170.13 97.21 171.08 98.14C172.03 99.06 172.51 100.12 172.5 101.3C172.49 102.79 171.76 104.03 170.3 105C168.84 105.97 166.68 106.57 163.79 106.8C165.22 107.33 166.39 107.89 167.33 108.5C168.26 109.12 169.5 110.21 171.07 111.78L175.06 115.7L167.11 115.65L162.37 111.25C160.67 109.69 159.5 108.7 158.87 108.3C158.24 107.89 157.57 107.61 156.87 107.46C156.16 107.31 155.04 107.23 153.51 107.22L152.16 107.21L152.1 115.55L145.44 115.49ZM152.19 104.01L157.11 104.05C160.31 104.07 162.3 104 163.09 103.84C163.89 103.68 164.51 103.41 164.96 103.01C165.41 102.62 165.64 102.11 165.65 101.51C165.65 100.84 165.36 100.29 164.77 99.87C164.18 99.45 163.35 99.19 162.27 99.06C161.73 99.02 160.12 98.98 157.42 98.96L152.23 98.93L152.19 104.01Z" fill="white"/>
<path d="M178.83 115.73L178.97 95.74L203.36 95.91L203.33 99.29L185.62 99.16L185.59 103.6L202.06 103.71L202.04 107.09L185.56 106.98L185.52 112.39L203.88 112.52L203.86 115.9L178.83 115.73Z" fill="white"/>
<path d="M207.91 109.45L214.4 109.1C214.77 110.42 215.56 111.39 216.74 112.02C217.92 112.64 219.52 112.96 221.54 112.98C223.68 112.99 225.29 112.73 226.37 112.19C227.46 111.65 228 111.01 228.01 110.27C228.01 109.79 227.79 109.39 227.34 109.06C226.89 108.73 226.09 108.43 224.96 108.18C224.19 108.01 222.42 107.7 219.66 107.27C216.11 106.7 213.62 106.03 212.2 105.23C210.2 104.11 209.2 102.76 209.21 101.18C209.21 100.16 209.69 99.21 210.65 98.32C211.6 97.44 212.97 96.77 214.76 96.32C216.55 95.86 218.7 95.65 221.23 95.66C225.35 95.69 228.45 96.27 230.53 97.39C232.6 98.51 233.69 100.01 233.78 101.86L227.1 101.95C226.83 100.92 226.23 100.18 225.3 99.72C224.38 99.26 222.98 99.02 221.13 99.01C219.21 98.99 217.71 99.22 216.62 99.7C215.92 100.01 215.57 100.42 215.57 100.93C215.56 101.41 215.89 101.82 216.55 102.16C217.38 102.6 219.41 103.05 222.64 103.54C225.87 104.03 228.25 104.52 229.79 105.03C231.33 105.54 232.54 106.22 233.4 107.09C234.27 107.95 234.7 109.02 234.69 110.28C234.68 111.42 234.15 112.49 233.1 113.49C232.05 114.48 230.56 115.21 228.63 115.68C226.71 116.15 224.32 116.38 221.46 116.36C217.3 116.33 214.1 115.73 211.88 114.54C209.65 113.39 208.33 111.68 207.91 109.45Z" fill="white"/>
<path d="M247.81 116.2L247.92 99.6L238.16 99.53L238.19 96.15L264.33 96.33L264.31 99.71L254.59 99.64L254.48 116.24L247.81 116.2Z" fill="white"/>
<path fill-rule="evenodd" clip-rule="evenodd" d="M281.71 96.45L294.89 96.55C297.5 96.57 299.45 96.65 300.73 96.79C302.01 96.93 303.15 97.21 304.16 97.64C305.17 98.06 306.01 98.62 306.68 99.32C307.35 100.02 307.68 100.79 307.67 101.66C307.66 102.59 307.24 103.45 306.4 104.22C305.57 105 304.44 105.57 303.01 105.96C305.01 106.33 306.55 106.94 307.61 107.8C308.68 108.67 309.21 109.67 309.21 110.83C309.2 111.74 308.85 112.62 308.15 113.48C307.45 114.34 306.49 115.02 305.28 115.52C304.07 116.03 302.58 116.34 300.81 116.44C299.7 116.51 297.03 116.53 292.78 116.52L281.56 116.44L281.71 96.45ZM288.36 99.82L288.32 104.42L292.68 104.45C295.27 104.47 296.88 104.45 297.51 104.42C298.65 104.34 299.54 104.11 300.19 103.72C300.84 103.34 301.18 102.81 301.18 102.17C301.19 101.56 300.91 101.05 300.35 100.67C299.79 100.28 298.96 100.04 297.85 99.95C297.2 99.9 295.3 99.86 292.17 99.84L288.36 99.82ZM288.3 107.75L288.26 113.11L294.43 113.15C296.82 113.17 298.35 113.14 299 113.06C299.99 112.96 300.8 112.69 301.43 112.27C302.05 111.86 302.37 111.29 302.37 110.58C302.37 109.98 302.13 109.47 301.66 109.04C301.19 108.62 300.49 108.31 299.59 108.11C298.68 107.91 296.71 107.8 293.69 107.79L288.3 107.75Z" fill="white"/>
<path fill-rule="evenodd" clip-rule="evenodd" d="M344.65 116.87L337.46 116.82L334.64 112.25L321.42 112.16L318.65 116.69L311.6 116.64L324.53 96.74L331.58 96.79L344.65 116.87ZM332.5 108.86L327.97 101.43L323.47 108.8L332.5 108.86Z" fill="white"/>
<path d="M348.36 116.9L348.5 96.92L354.96 96.97L368.42 110.45L368.52 97.05L374.68 97.1L374.55 117.08L367.88 117.04L354.61 103.81L354.53 116.95L348.36 116.9Z" fill="white"/>
<path d="M381.85 117.13L381.99 97.15L388.65 97.19L388.6 106.05L402.1 97.29L411.05 97.35L398.56 105.05L411.56 117.34L402.94 117.28L393.95 107.83L388.56 111.14L388.52 117.18L381.85 117.13Z" fill="white"/>
<path d="M428.23 117.45L428.37 97.64L435.04 97.69L434.93 114.12L451.45 114.24L451.42 117.62L428.23 117.45Z" fill="white"/>
<path d="M456.235 97.6555L456.094 117.635L462.764 117.683L462.905 97.7025L456.235 97.6555Z" fill="white"/>
<path d="M469.13 117.74L469.27 97.76L479.26 97.83L485.08 111.5L491.01 97.9L501.02 97.98L500.89 117.96L494.72 117.92L494.8 102.18L488.2 117.87L481.78 117.83L475.43 102.05L475.3 117.79L469.13 117.74Z" fill="white"/>
<path d="M507.653 98.0147L507.512 117.995L514.182 118.042L514.323 98.0617L507.653 98.0147Z" fill="white"/>
<path d="M528.05 118.15L528.16 101.54L518.41 101.47L518.43 98.1L544.56 98.27L544.55 101.65L534.84 101.59L534.72 118.19L528.05 118.15Z" fill="white"/>
<path d="M548.91 118.29L549.05 98.31L573.44 98.48L573.42 101.86L555.7 101.73L555.67 106.17L572.14 106.28L572.12 109.66L555.64 109.55L555.6 114.96L573.98 115.09L573.95 118.47L548.91 118.29Z" fill="white"/>
<path fill-rule="evenodd" clip-rule="evenodd" d="M579.84 98.52L591.97 98.61C594.71 98.63 596.79 98.77 598.23 99.03C600.15 99.39 601.8 100.02 603.17 100.91C604.54 101.8 605.58 102.88 606.29 104.16C607 105.44 607.34 107.02 607.34 108.9C607.33 110.54 606.99 111.96 606.3 113.14C605.47 114.59 604.29 115.76 602.75 116.65C601.59 117.32 600.03 117.84 598.08 118.2C596.61 118.47 594.65 118.6 592.19 118.58L579.7 118.5L579.84 98.52ZM586.49 101.94L586.4 115.18L591.35 115.21C593.2 115.22 594.53 115.17 595.35 115.04C596.42 114.88 597.33 114.61 598.03 114.22C598.74 113.84 599.33 113.2 599.78 112.31C600.23 111.41 600.47 110.2 600.48 108.66C600.49 107.12 600.27 105.93 599.84 105.09C599.39 104.26 598.76 103.61 597.96 103.14C597.16 102.67 596.14 102.35 594.9 102.18C593.98 102.05 592.16 101.97 589.47 101.95L586.49 101.94Z" fill="white"/>
<path d="M71.7702 62.32C71.7002 61.71 71.6602 61.1 71.6602 60.47C71.6702 59.84 71.7102 59.22 71.8002 58.62L71.7702 62.32ZM98.8402 56.68L86.8302 56.59L86.7702 65.31L98.9802 65.39C96.9802 70.74 91.4902 74.53 85.4102 74.48C79.3302 74.43 73.9802 70.57 72.0702 65.2L84.2802 65.29L84.3402 56.57L72.0502 56.49C73.8202 50.75 79.2402 46.59 85.6002 46.63C91.9702 46.67 97.3302 50.91 99.0202 56.68C99.0202 56.69 98.8402 56.68 98.8402 56.68Z" fill="#F37021"/>
<path d="M84.2 36.68C65.12 35.21 54.34 45.55 53.71 60.41C54.07 77.1 64.94 86.62 83.76 85.3L84.12 76.9C72.36 76.47 65.53 72.71 63.99 65.12L72.02 65.17L72.07 56.49L64.62 56.44C65.34 47.28 72.03 43.83 84.03 45.06L84.2 36.68Z" fill="white"/>
<path d="M86.96 36.69C106.06 35.49 116.69 45.97 117.11 60.84C116.52 77.52 105.51 86.89 86.72 85.32L86.48 76.92C98.24 76.66 105.13 72.99 106.77 65.42L98.96 65.37L99.03 56.69L106.25 56.74C105.66 47.56 99.01 44.02 87 45.09L86.96 36.69Z" fill="white"/>
</svg>
